<svg xmlns="http://www.w3.org/2000/svg" width="35" height="40" viewBox="0 0 35 40"><g transform="translate(-35 -20)" style="isolation:isolate"><path d="M96.32,103.9a2.315,2.315,0,1,0,2.12,2.307A2.214,2.214,0,0,0,96.32,103.9Zm7.587,0a2.315,2.315,0,1,0,2.12,2.307A2.214,2.214,0,0,0,103.907,103.9Z" transform="translate(-47.584 -67.202)" fill="#fff"/><path d="M65.9,20H39.1A4.11,4.11,0,0,0,35,24.12V51.16a4.11,4.11,0,0,0,4.1,4.12H61.78l-1.06-3.7,2.56,2.38L65.7,56.2,70,60V24.12A4.11,4.11,0,0,0,65.9,20ZM58.18,46.12s-.72-.86-1.32-1.62a6.311,6.311,0,0,0,3.62-2.38,11.445,11.445,0,0,1-2.3,1.18,13.164,13.164,0,0,1-2.9.86,14.01,14.01,0,0,1-5.18-.02,16.789,16.789,0,0,1-2.94-.86,11.721,11.721,0,0,1-1.46-.68c-.06-.04-.12-.06-.18-.1a.276.276,0,0,1-.08-.06c-.36-.2-.56-.34-.56-.34a6.22,6.22,0,0,0,3.5,2.36c-.6.76-1.34,1.66-1.34,1.66a7.251,7.251,0,0,1-6.1-3.04,26.783,26.783,0,0,1,2.88-11.66,9.89,9.89,0,0,1,5.62-2.1l.2.24a13.493,13.493,0,0,0-5.26,2.62s.44-.24,1.18-.58a15.019,15.019,0,0,1,4.54-1.26,1.97,1.97,0,0,1,.34-.04,16.922,16.922,0,0,1,4.04-.04,16.3,16.3,0,0,1,6.02,1.92,13.31,13.31,0,0,0-4.98-2.54l.28-.32a9.89,9.89,0,0,1,5.62,2.1A26.783,26.783,0,0,1,64.3,43.08,7.311,7.311,0,0,1,58.18,46.12Z" fill="#fff"/></g></svg>