<svg xmlns="http://www.w3.org/2000/svg" width="35" height="24.659" viewBox="0 0 35 24.659"><path d="M42.269,37.851a4.4,4.4,0,0,0-3.094-3.114C36.445,34,25.5,34,25.5,34s-10.945,0-13.674.736a4.4,4.4,0,0,0-3.094,3.114A46.129,46.129,0,0,0,8,46.33a46.129,46.129,0,0,0,.731,8.479,4.4,4.4,0,0,0,3.094,3.114c2.729.736,13.674.736,13.674.736s10.945,0,13.674-.736a4.4,4.4,0,0,0,3.094-3.114A46.129,46.129,0,0,0,43,46.33,46.129,46.129,0,0,0,42.269,37.851ZM21.92,51.534V41.125l9.148,5.2Z" transform="translate(-8 -34)" fill="#fff"/></svg>